<?xml version="1.0" encoding="UTF-8" standalone="no"?>
<svg
   version="1.1"
   id="Layer_1"
   x="0px"
   y="0px"
   width="100%"
   viewBox="0 0 1024 1024"
   enable-background="new 0 0 1024 1024"
   xml:space="preserve"
   sodipodi:docname="icon.svg"
   inkscape:version="1.4.2 (ebf0e940d0, 2025-05-08)"
   xmlns:inkscape="http://www.inkscape.org/namespaces/inkscape"
   xmlns:sodipodi="http://sodipodi.sourceforge.net/DTD/sodipodi-0.dtd"
   xmlns="http://www.w3.org/2000/svg"
   xmlns:svg="http://www.w3.org/2000/svg"><defs
   id="defs1" /><sodipodi:namedview
   id="namedview1"
   pagecolor="#ffffff"
   bordercolor="#000000"
   borderopacity="0.25"
   inkscape:showpageshadow="2"
   inkscape:pageopacity="0.0"
   inkscape:pagecheckerboard="0"
   inkscape:deskcolor="#d1d1d1"
   inkscape:zoom="0.78710938"
   inkscape:cx="511.36476"
   inkscape:cy="512"
   inkscape:window-width="1920"
   inkscape:window-height="1014"
   inkscape:window-x="0"
   inkscape:window-y="0"
   inkscape:window-maximized="1"
   inkscape:current-layer="Layer_1" />
<path
   fill="#000000"
   opacity="1"
   stroke="none"
   d="m 403.3044,708.01836 c -5.68758,-9.16631 -11.46502,-10.8051 -20.45341,-5.48502 -24.77176,14.66267 -49.91794,28.70781 -75.16165,42.54911 -8.54205,4.68341 -9.751,10.01559 -7.68347,19.51158 14.47672,66.49006 -27.50255,127.95295 -96.2023,141.98852 C 138.70841,919.88157 75.960635,875.36342 63.326336,806.91704 51.848213,744.73383 97.880849,680.33866 162.37196,670.15343 c 36.41297,-5.75077 69.98541,2.79625 98.96541,26.45247 5.5459,4.52706 10.03339,8.46925 18.14131,3.80167 25.87277,-14.89482 52.05408,-29.27606 78.43835,-43.24753 9.53779,-5.05059 12.30767,-11.15898 10.35953,-21.89704 -13.51164,-74.47878 31.21433,-148.00116 103.73714,-169.36521 13.03356,-3.83948 16.98824,-9.68466 16.34581,-22.29318 -0.8404,-16.49452 -1.0196,-33.11214 0.008,-49.58369 0.79928,-12.80725 -3.83371,-18.66386 -16.04308,-23.02492 -53.77806,-19.20868 -85.59028,-67.55604 -83.74777,-125.06915 1.68832,-52.70131 38.77948,-99.28864 91.42392,-114.8298 63.64367,-18.78843 130.71723,15.91157 153.17495,79.24356 22.1902,62.57834 -7.04563,132.27747 -68.54312,156.27763 -19.86781,7.75352 -25.95884,17.51655 -23.92706,37.04571 1.42754,13.72084 0.81743,27.73862 0.0991,41.57094 -0.58078,11.18851 2.69755,16.91632 14.4141,20.55854 58.09738,18.06051 93.07304,57.91185 105.65292,117.18821 3.78467,17.83353 3.53161,36.22712 0.11269,54.05029 -1.8936,9.86962 1.01129,14.82562 9.09244,19.24071 25.26628,13.8038 50.52923,27.64082 75.33998,42.23625 9.32597,5.48618 15.57527,4.32853 24.05057,-2.28835 44.97523,-35.11263 99.48552,-36.97771 145.74251,-5.96887 46.29781,31.03601 64.15714,91.81163 42.46995,144.52543 -21.16638,51.44711 -78.7553,82.52943 -132.89938,71.72922 -57.53812,-11.47713 -96.68908,-57.62136 -97.13132,-114.57125 -0.0496,-6.39684 -1.42734,-13.45086 0.73536,-19.0756 7.28131,-18.93686 -3.27228,-26.46086 -17.96386,-33.98255 -21.81401,-11.16857 -42.90359,-23.78616 -64.02055,-36.26267 -7.5029,-4.43289 -12.0034,-4.82119 -18.62184,2.75461 -59.3172,67.89805 -161.26392,69.22514 -224.47416,2.6495 m 92.24418,-3.75107 c 10.11781,0.16045 20.29648,1.11565 30.34335,0.34824 52.09101,-3.97873 93.76992,-56.22685 86.27169,-107.65579 -8.20367,-56.26827 -62.66745,-96.10927 -115.44056,-84.44668 -46.94272,10.3742 -79.75879,47.78671 -79.83931,95.13491 -0.0726,42.69119 23.44038,83.02795 78.66483,96.61932 m -53.7533,-437.87472 c 9.93607,40.98839 38.1689,62.32841 79.77355,60.29723 35.01786,-1.70972 63.35006,-30.29313 68.15072,-68.75554 3.90445,-31.28215 -20.21509,-67.57384 -52.41874,-77.3951 -54.89908,-16.7426 -104.66225,30.17656 -95.50553,85.85341 m -305.92156,572.5792 c 22.30363,18.75863 46.79742,24.21882 74.28794,12.5236 29.50316,-12.55175 46.65144,-45.55757 40.07688,-77.49994 -6.28957,-30.55664 -36.01588,-55.83289 -66.63711,-54.24141 -28.31316,1.47151 -52.19879,13.03034 -63.56415,40.86362 -11.44968,28.03987 -7.48033,54.31782 15.83644,78.35413 M 816.66503,727.05371 c -34.22096,18.19347 -47.24932,52.18637 -33.60226,87.67284 11.32863,29.45761 46.46041,48.53068 76.3626,41.45731 41.97242,-9.92845 64.3295,-48.81169 52.55006,-89.08182 -9.57376,-32.72835 -52.83968,-60.20733 -95.3104,-40.04833 z"
   id="path1"
   style="fill:#686868;fill-opacity:1;stroke-width:3.20175" />
</svg>
